<?xml version="1.0" standalone="no"?><!DOCTYPE svg PUBLIC "-//W3C//DTD SVG 1.1//EN" "http://www.w3.org/Graphics/SVG/1.1/DTD/svg11.dtd"><svg t="1550907442298" class="icon" style="" viewBox="0 0 1024 1024" version="1.1" xmlns="http://www.w3.org/2000/svg" p-id="3330" xmlns:xlink="http://www.w3.org/1999/xlink" width="200" height="200"><defs><style type="text/css"></style></defs><path d="M512 1016.685714C233.2672 1016.685714 7.314286 790.7328 7.314286 512 7.314286 233.2672 233.2672 7.314286 512 7.314286c278.7328 0 504.685714 225.952914 504.685714 504.685714 0 278.7328-225.952914 504.685714-504.685714 504.685714z m0-43.885714c254.478629 0 460.8-206.321371 460.8-460.8S766.478629 51.2 512 51.2 51.2 257.521371 51.2 512 257.521371 972.8 512 972.8z" p-id="3331" fill="#13227a"></path><path d="M266.971429 390.670629h65.828571c0 18.051657 14.7456 32.709486 32.914286 32.709485s32.914286-14.657829 32.914285-32.709485h329.142858c18.168686 0 32.914286-14.628571 32.914285-32.709486 0-18.051657-14.7456-32.680229-32.914285-32.680229h-329.142858c0-18.051657-14.7456-32.709486-32.914285-32.709485s-32.914286 14.628571-32.914286 32.709485h-65.828571c-18.168686 0-32.914286 14.628571-32.914286 32.680229s14.7456 32.709486 32.914286 32.709486z m460.8 103.277714h-65.828572c0-18.080914-14.7456-32.709486-32.914286-32.709486s-32.914286 14.628571-32.914285 32.680229H266.971429C248.802743 493.919086 234.057143 508.576914 234.057143 526.628571c0 18.051657 14.7456 32.709486 32.914286 32.709486h329.142857c0 18.051657 14.7456 32.680229 32.914285 32.680229s32.914286-14.628571 32.914286-32.680229h65.828572c18.168686 0 32.914286-14.657829 32.914285-32.709486 0-18.051657-14.7456-32.709486-32.914285-32.709485z m0 168.638171h-329.142858c0-18.051657-14.7456-32.709486-32.914285-32.709485s-32.914286 14.657829-32.914286 32.709485h-65.828571c-18.168686 0-32.914286 14.628571-32.914286 32.709486 0 18.051657 14.7456 32.680229 32.914286 32.680229h65.828571c0 18.051657 14.7456 32.709486 32.914286 32.709485s32.914286-14.628571 32.914285-32.709485h329.142858c18.168686 0 32.914286-14.628571 32.914285-32.680229s-14.7456-32.709486-32.914285-32.709486z" p-id="3332" fill="#13227a"></path></svg>