<?xml version="1.0" standalone="no"?><!DOCTYPE svg PUBLIC "-//W3C//DTD SVG 1.1//EN" "http://www.w3.org/Graphics/SVG/1.1/DTD/svg11.dtd"><svg t="1550907376485" class="icon" style="" viewBox="0 0 1024 1024" version="1.1" xmlns="http://www.w3.org/2000/svg" p-id="1933" xmlns:xlink="http://www.w3.org/1999/xlink" width="200" height="200"><defs><style type="text/css"></style></defs><path d="M503.584 872.176c-6.32 10.928-20.832 14.4-32.352 7.744L106.592 669.424c-11.536-6.672-15.776-20.992-9.456-31.92l205.888-356.592-55.424-32L41.712 605.504c-23.952 41.488-9.216 95.008 32.88 119.344l364.64 210.512a88.704 88.704 0 0 0 44.384 11.936c30.192 0 59.424-15.456 75.408-43.12l205.888-356.592-55.44-32-205.888 356.592zM245.28 116.288l217.312 125.456-32 55.424-217.312-125.456z" p-id="1934" fill="#13227a"></path><path d="M488.912 399.392a98.64 98.64 0 0 0-49.264-13.232 99.04 99.04 0 0 0-85.52 49.344 98 98 0 0 0-9.856 74.864 98 98 0 0 0 45.984 59.92c14.992 8.64 32.016 13.216 49.264 13.216a99.04 99.04 0 0 0 85.52-49.344 98.8 98.8 0 0 0-36.128-134.768z m-19.312 102.784c-9.216 15.984-31.152 22.08-47.36 12.688-8.016-4.624-13.76-12.096-16.16-21.04s-1.168-18.288 3.456-26.304a34.816 34.816 0 0 1 30.096-17.344 34.688 34.688 0 0 1 29.968 52zM509.712 349.2l77.792-134.72a13.696 13.696 0 0 1 7.824-6.48 8.64 8.64 0 0 1 6.768 0.56 8.48 8.48 0 0 1 3.84 5.568 13.792 13.792 0 0 1-1.696 10.032l-77.776 134.72 55.44 32 77.776-134.72a77.52 77.52 0 0 0 8.576-56.592 71.808 71.808 0 0 0-91.472-52.8 77.552 77.552 0 0 0-44.72 35.744l-77.776 134.704 55.424 31.984zM921.936 386.56c-71.136-61.216-147.04-61.28-219.408-0.208l1.856 2.192-67.424-38.928-32 55.424 232.848 134.432 32-55.424-107.872-62.272c40.48-26.064 77.648-21.648 118.272 13.296 27.536 23.68 62.768 114.544-10.416 457.088l62.592 13.376c62.784-293.92 59.472-458.832-10.448-518.976z" p-id="1935" fill="#13227a"></path></svg>