<?xml version="1.0" standalone="no"?><!DOCTYPE svg PUBLIC "-//W3C//DTD SVG 1.1//EN" "http://www.w3.org/Graphics/SVG/1.1/DTD/svg11.dtd"><svg t="1550907527012" class="icon" style="" viewBox="0 0 1024 1024" version="1.1" xmlns="http://www.w3.org/2000/svg" p-id="5290" xmlns:xlink="http://www.w3.org/1999/xlink" width="200" height="200"><defs><style type="text/css"></style></defs><path d="M171.896904 415.167257c68.603908 0.301037 124.5161-52.639318 124.888182-118.350864a116.633749 116.633749 0 0 0-36.867391-83.99412 127.130304 127.130304 0 0 0-87.991891-34.430196c-32.738368-0.29622-64.337613 12.036661-88.180942 34.430196a116.504905 116.504905 0 0 0-36.923986 83.99412c0.427472 65.710341 56.416729 118.707291 125.076028 118.350864z m-0.027695-197.364629c45.968339 0 83.18975 35.353777 83.18975 79.012561 0 43.533553-37.22141 78.886126-83.18975 78.886126-21.975696 0.122823-43.09163-8.113547-58.711835-22.940218a77.680774 77.680774 0 0 1-24.610371-55.945908c0-43.65758 37.352662-79.012561 83.322206-79.012561z m0 118.35568c22.943831 0 41.594875-17.581761 41.594875-39.341915 0-21.778216-18.651044-39.416572-41.594875-39.416571-22.964301 0-41.614141 17.638356-41.614141 39.351547h0.075861c0 21.823973 18.573979 39.406938 41.53828 39.406939z m730.800866 0.739346h0.128844c-8.969696-12.117339-40.59182-28.197527-60.497586-16.624463l-105.644696 68.166803-70.696717-79.289516v-58.479434l67.930789-76.045541 106.241954 68.466635c18.862974 12.625489 51.007698-4.531208 60.085768-16.563051a25.252182 25.252182 0 0 0 4.239804-19.78776 26.179376 26.179376 0 0 0-11.698295-16.793044L732.026689 86.344617c-12.688105-8.146059-29.541356-5.154956-38.645917 6.886521a24.482732 24.482732 0 0 0-4.239804 17.460142l-83.752087 94.078857h-49.836062c-19.823884-0.414227-36.270134 15.234877-36.810796 35.04672v-8.795095H338.436555v1.359482c8.560286 16.589543 13.791104 39.350343 13.791104 64.435149 0 25.033027-5.287413 47.775765-13.847699 64.366513v1.354666h180.305468v-8.848077c0 19.360287 16.613626 35.169543 36.867391 35.169542h51.684429a37.603125 37.603125 0 0 0 22.462171-7.568068l63.198489 70.837602a24.359908 24.359908 0 0 0 4.313258 17.342136c8.671068 11.984882 25.847031 15.06148 38.455661 6.876887l159.678418-103.114782a25.901218 25.901218 0 0 0 11.6417-16.665404 25.100459 25.100459 0 0 0-4.31687-19.669754zM697.21237 798.818355a56.298723 56.298723 0 0 0-38.9602-15.3577H518.742023l-222.032799-368.293398c-61.157459 62.651806-120.78565 60.502402-152.719647 52.638113-31.769029-7.747486-69.233678-39.473167-69.233678-39.473166l222.142376 355.129655H157.404986c-30.348135 0-54.958506 23.621766-54.958506 52.620051v52.582723c0 29.078963 24.610371 52.639318 54.958506 52.639318h500.900167c14.523226 0 28.556363-5.548713 38.907217-15.379375a51.495377 51.495377 0 0 0 16.110292-37.258739v-52.582723c-0.037329-14.089733-5.87022-27.547287-16.110292-37.264759z m0 0M972.82613 638.763039h-106.72v-112.916544c0-8.740908-7.086409-15.828522-15.828522-15.828522h-66.105302c-8.740908 0-15.828522 7.088818-15.828522 15.828522v112.916544h-106.72c-8.740908 0-15.827318 7.086409-15.827318 15.828522v63.353824c0 8.740908 7.087614 15.826114 15.827318 15.826114h106.72v112.914136c0 8.740908 7.088818 15.829726 15.828522 15.829726h66.106506c8.742112 0 15.828522-7.088818 15.828522-15.829726V733.771499h106.72c8.742112 0 15.828522-7.085205 15.828522-15.826114v-63.353824c-0.002408-8.742112-7.087614-15.828522-15.829726-15.828522z" p-id="5291" fill="#13227a"></path></svg>