<?xml version="1.0" standalone="no"?><!DOCTYPE svg PUBLIC "-//W3C//DTD SVG 1.1//EN" "http://www.w3.org/Graphics/SVG/1.1/DTD/svg11.dtd"><svg t="1550907583634" class="icon" style="" viewBox="0 0 1024 1024" version="1.1" xmlns="http://www.w3.org/2000/svg" p-id="7132" xmlns:xlink="http://www.w3.org/1999/xlink" width="200" height="200"><defs><style type="text/css"></style></defs><path d="M752.5 928.3H640.1v-99h-53.9v99h-149v-99h-53.1v99H270.9v-54.6h55.4v-44.4h-12.7c-54.2 0-98.2-44.1-98.2-98.3V246c0-54.2 44.1-98.3 98.2-98.3h123.5V98.2h149v49.5h72.7V98.2h93.6v59.3c14.1 6.8 26.4 17 36 29.8 12.7 17.1 19.5 37.4 19.5 58.7v485c0 54.2-44.1 98.3-98.2 98.3H697v44.4h55.4v54.6zM696 183l-147.9-1v-45.7h-72.7v49.5H313.6c-33.1 0-60 27-60 60.1v485c0 33.2 26.9 60.1 60 60.1h161.7v99H548v-99h161.7c33.1 0 60.1-27 60.1-60.1V246c0-26.4-16.9-49.5-42.1-57.4l-13.4-4.2L696 183z" fill="#13227a" p-id="7133"></path><path d="M396.6 511.7V408h-58.1v-51.9h58.1v-51.9h58.1v51.9h58.1V408h-58.1v103.7h58.1v51.9h-58.1v103.7h-58.1V563.6h-58.1v-51.9h58.1zM629 459.8v103.7h58.1v51.9H629v51.9h-58.1v-51.9h-58.1v-51.9h58.1V459.8h-58.1V408h58.1V304.2H629V408h58.1v51.9H629z" fill="#13227a" p-id="7134"></path></svg>