<?xml version="1.0" standalone="no"?><!DOCTYPE svg PUBLIC "-//W3C//DTD SVG 1.1//EN" "http://www.w3.org/Graphics/SVG/1.1/DTD/svg11.dtd"><svg t="1569312712315" class="icon" viewBox="0 0 1024 1024" version="1.1" xmlns="http://www.w3.org/2000/svg" p-id="10289" xmlns:xlink="http://www.w3.org/1999/xlink" width="200" height="200"><defs><style type="text/css"></style></defs><path d="M260.18 906.65h-61.61c-45.82 0-83.09-37.27-83.09-83.09v-133.9c0-45.82 37.27-83.09 83.09-83.09h61.61c45.82 0 83.09 37.27 83.09 83.09v133.9c0 45.82-37.27 83.09-83.09 83.09z m-61.61-244.69c-15.27 0-27.7 12.42-27.7 27.7v133.9c0 15.27 12.42 27.7 27.7 27.7h61.61c15.27 0 27.7-12.42 27.7-27.7v-133.9c0-15.27-12.42-27.7-27.7-27.7h-61.61zM540.02 906.65H478.4c-45.82 0-83.09-37.27-83.09-83.09v-133.9c0-45.82 37.27-83.09 83.09-83.09h61.61c45.82 0 83.09 37.27 83.09 83.09v133.9c0.01 45.82-37.27 83.09-83.08 83.09zM478.4 661.96c-15.27 0-27.7 12.42-27.7 27.7v133.9c0 15.27 12.42 27.7 27.7 27.7h61.61c15.27 0 27.7-12.42 27.7-27.7v-133.9c0-15.27-12.42-27.7-27.7-27.7H478.4zM705.95 403H312.46c-45.82 0-83.09-37.27-83.09-83.09v-133.9c0-45.82 37.27-83.09 83.09-83.09h393.49c45.82 0 83.09 37.27 83.09 83.09v133.9c0 45.82-37.27 83.09-83.09 83.09zM312.46 158.32c-15.27 0-27.7 12.42-27.7 27.7v133.9c0 15.27 12.42 27.7 27.7 27.7h393.49c15.27 0 27.7-12.42 27.7-27.7v-133.9c0-15.27-12.42-27.7-27.7-27.7H312.46zM819.85 906.65h-61.61c-45.82 0-83.09-37.27-83.09-83.09v-133.9c0-45.82 37.27-83.09 83.09-83.09h61.61c45.82 0 83.09 37.27 83.09 83.09v133.9c0 45.82-37.27 83.09-83.09 83.09z m-61.61-244.69c-15.27 0-27.7 12.42-27.7 27.7v133.9c0 15.27 12.42 27.7 27.7 27.7h61.61c15.27 0 27.7-12.42 27.7-27.7v-133.9c0-15.27-12.42-27.7-27.7-27.7h-61.61z" p-id="10290"></path><path d="M481.51 375.31h55.4v252.84h-55.4z" p-id="10291"></path><path d="M816.74 637.16h-55.39v-89.38c0-7.64-6.21-13.85-13.85-13.85H270.92c-7.64 0-13.85 6.21-13.85 13.85v89.38h-55.39v-89.38c0-38.18 31.06-69.24 69.24-69.24H747.5c38.18 0 69.24 31.06 69.24 69.24v89.38z" p-id="10292"></path></svg>