<?xml version="1.0" standalone="no"?><!DOCTYPE svg PUBLIC "-//W3C//DTD SVG 1.1//EN" "http://www.w3.org/Graphics/SVG/1.1/DTD/svg11.dtd"><svg t="1569313493233" class="icon" viewBox="0 0 1024 1024" version="1.1" xmlns="http://www.w3.org/2000/svg" p-id="11832" xmlns:xlink="http://www.w3.org/1999/xlink" width="200" height="200"><defs><style type="text/css"></style></defs><path d="M636 928.8c-4 0-8.8 0.8-12.8 2.4-36 9.6-72.8 14.4-112 14.4-112 0-214.4-42.4-291.2-112.8l52.8-52.8-192.8-32 32 193.6 54.4-54.4c90.4 84 212 135.2 345.6 135.2 45.6 0 90.4-6.4 132.8-17.6 16.8-4 29.6-19.2 29.6-36.8 0-22.4-16.8-39.2-38.4-39.2zM94.4 630.4c0-4-0.8-8-1.6-12C84 584 79.2 548.8 79.2 512c0-109.6 40.8-210.4 108.8-286.4l51.2 51.2 32-192.8-193.6 32 56 56C52.8 261.6 3.2 380.8 3.2 512c0 44 5.6 86.4 16 127.2 4 16.8 19.2 28.8 36.8 28.8 20.8 0 38.4-16.8 38.4-37.6zM1020.8 512c0-45.6-6.4-90.4-17.6-132.8-4.8-16-19.2-28-36.8-28-20.8 0-38.4 16.8-38.4 38.4 0 4.8 0.8 8.8 2.4 12.8 9.6 36 14.4 72.8 14.4 109.6 0 111.2-42.4 212.8-111.2 289.6l-52-51.2-32 192.8 193.6-32-56-55.2c83.2-91.2 133.6-212 133.6-344z m-81.6-239.2l-32-193.6-54.4 54.4C762.4 52.8 643.2 3.2 512 3.2c-44 0-87.2 5.6-128 16-1.6 0-3.2 0.8-4 0.8-15.2 4.8-26.4 19.2-26.4 36 0 20.8 16.8 38.4 38.4 38.4 3.2 0 6.4-0.8 9.6-1.6 35.2-9.6 72.8-14.4 110.4-14.4 110.4 0 210.4 40.8 287.2 108.8L746.4 240l192.8 32.8zM701.6 535.2c-33.6-33.6-84-41.6-124.8-24l-43.2-43.2-25.6-25.6c16.8-40.8 9.6-90.4-24-124.8s-84-41.6-124.8-24l54.4 54.4c11.2 11.2 11.2 28.8 0 40l-20.8 18.4c-11.2 11.2-28.8 11.2-40 0L298.4 352c-16.8 40.8-9.6 90.4 24 124.8 33.6 33.6 84 41.6 124.8 24l39.2 39.2 29.6 29.6c-16.8 40.8-9.6 90.4 24 124.8 33.6 33.6 84 41.6 124.8 24L610.4 664c-11.2-11.2-11.2-28.8 0-40l20-20c11.2-11.2 28.8-11.2 40 0l54.4 54.4c18.4-39.2 11.2-88.8-23.2-123.2z" p-id="11833" fill="#707070"></path></svg>