<?xml version="1.0" standalone="no"?><!DOCTYPE svg PUBLIC "-//W3C//DTD SVG 1.1//EN" "http://www.w3.org/Graphics/SVG/1.1/DTD/svg11.dtd"><svg t="1569313713338" class="icon" viewBox="0 0 1024 1024" version="1.1" xmlns="http://www.w3.org/2000/svg" p-id="16918" xmlns:xlink="http://www.w3.org/1999/xlink" width="200" height="200"><defs><style type="text/css"></style></defs><path d="M505.5 579.6c-2.6 0-5.2-0.7-7.6-2L248.1 435.1c-10.1-5.8-16.3-16.2-16.5-27.9-0.2-11.7 5.7-22.3 15.6-28.4l250.3-153.2c4.9-3 11.1-3 16 0l252.8 153.2c10 6.1 15.9 16.7 15.7 28.5-0.2 11.7-6.4 22.2-16.6 28L513 577.7c-2.3 1.3-4.9 1.9-7.5 1.9z m0.1-323L263.2 405v3.5l242.3 138.2 244.8-138.2 8-16.6-7.9 13.1-244.8-148.4z" fill="#1E2934" p-id="16919"></path><path d="M506.9 687.2c-2.4 0-4.8-0.6-7-1.7l-266.3-136c-5.1-2.6-8.4-7.9-8.4-13.6V489c0-8.5 6.9-15.3 15.3-15.3 8.5 0 15.3 6.9 15.3 15.3v37.5l251 128.2 257.6-128.3V489c0-8.5 6.9-15.3 15.3-15.3S795 480.6 795 489v46.9c0 5.8-3.3 11.1-8.5 13.7l-273 136c-1.9 1.1-4.2 1.6-6.6 1.6z" fill="#1E2934" p-id="16920"></path><path d="M506.9 803.1c-2.4 0-4.8-0.6-7-1.7l-266.3-136c-5.1-2.6-8.4-7.9-8.4-13.6v-46.9c0-8.5 6.9-15.3 15.3-15.3 8.5 0 15.3 6.9 15.3 15.3v37.5l251 128.2 257.6-128.3v-37.4c0-8.5 6.9-15.3 15.3-15.3s15.3 6.9 15.3 15.3v46.9c0 5.8-3.3 11.1-8.5 13.7l-273 136c-1.9 1.1-4.2 1.6-6.6 1.6z" fill="#1E2934" p-id="16921"></path></svg>