<?xml version="1.0" standalone="no"?><!DOCTYPE svg PUBLIC "-//W3C//DTD SVG 1.1//EN" "http://www.w3.org/Graphics/SVG/1.1/DTD/svg11.dtd"><svg t="1569312738801" class="icon" viewBox="0 0 1024 1024" version="1.1" xmlns="http://www.w3.org/2000/svg" p-id="10409" xmlns:xlink="http://www.w3.org/1999/xlink" width="200" height="200"><defs><style type="text/css"></style></defs><path d="M495.489849 335.299918c-38.270786 0-69.407138-31.135329-69.407138-69.407138 0-29.661958 18.843586-56.051578 46.890876-65.666885 10.69653-3.669605 22.344249 2.031388 26.011807 12.729966 3.667557 10.698578-2.032412 22.344249-12.73099 26.011807-11.495161 3.940935-19.217304 14.761355-19.217304 26.925112 0 15.687971 12.762731 28.451725 28.451725 28.451725s28.450702-12.762731 28.450702-28.451725c0-11.309837 9.167869-20.477706 20.477706-20.477706s20.477706 9.167869 20.477707 20.477706c0.001024 38.27181-31.134305 69.407138-69.405091 69.407138z" fill="#000" p-id="10410"></path><path d="M479.613483 240.080631c-8.508487 0-16.454861-5.343658-19.368838-13.841906-3.668581-10.698578 2.030365-22.344249 12.728942-26.01283a69.278129 69.278129 0 0 1 22.516262-3.73923c11.309837 0 20.477706 9.167869 20.477707 20.477707s-9.167869 20.477706-20.477707 20.477706c-3.174045 0-6.280513 0.512967-9.233398 1.52559a20.441871 20.441871 0 0 1-6.642968 1.112963zM757.403811 547.21756c-38.27181 0-69.407138-31.136353-69.407139-69.407139s31.135329-69.406115 69.407139-69.406114c38.270786 0 69.406115 31.135329 69.406114 69.406114 0 38.27181-31.135329 69.407138-69.406114 69.407139z m0-97.85784c-15.687971 0-28.451725 12.762731-28.451726 28.450701s12.763754 28.451725 28.451726 28.451726 28.450702-12.762731 28.450701-28.451726c0-15.686947-12.762731-28.450702-28.450701-28.450701zM266.791751 651.794135c-38.270786 0-69.406115-31.135329-69.406114-69.406114 0-38.27181 31.135329-69.407138 69.406114-69.407139 38.270786 0 69.407138 31.135329 69.407139 69.407139-0.001024 38.270786-31.136353 69.406115-69.407139 69.406114z m0-97.85784c-15.687971 0-28.450702 12.763754-28.450701 28.451726s12.762731 28.450702 28.450701 28.450701 28.451725-12.762731 28.451726-28.450701-12.763754-28.451725-28.451726-28.451726zM757.403811 769.381221c-38.27181 0-69.407138-31.135329-69.407139-69.406114 0-38.27181 31.135329-69.407138 69.407139-69.407139 38.270786 0 69.406115 31.135329 69.406114 69.407139 0 38.270786-31.135329 69.406115-69.406114 69.406114z m0-97.85784c-15.687971 0-28.451725 12.763754-28.451726 28.451726S741.71584 728.425808 757.403811 728.425808s28.450702-12.762731 28.450701-28.450701-12.762731-28.451725-28.450701-28.451726z" fill="#000" p-id="10411"></path><path d="M697.895596 721.422433h-146.7842c-41.959844 0-76.098229-34.137361-76.098229-76.097205v-319.042668c0-11.309837 9.167869-20.477706 20.477706-20.477706 11.308813 0 20.477706 9.167869 20.477707 20.477706v319.042668c0 19.378054 15.763738 35.141792 35.141792 35.141792h146.7842c11.309837 0 20.477706 9.167869 20.477706 20.477706s-9.166845 20.477706-20.476682 20.477707z" fill="#000" p-id="10412"></path><path d="M697.895596 503.667621h-146.7842c-17.323116 0-33.915178-2.729678-46.720912-7.685283-25.560273-9.89278-29.377318-25.747644-29.377317-34.318588V338.184203c0-11.309837 9.167869-20.477706 20.477706-20.477706 11.308813 0 20.477706 9.167869 20.477707 20.477706v118.192203c4.988369 2.525925 16.986258 6.335802 35.141792 6.335802h146.7842c11.309837 0 20.477706 9.167869 20.477706 20.477707s-9.166845 20.477706-20.476682 20.477706z" fill="#000" p-id="10413"></path><path d="M449.723199 602.865727H328.944662c-11.309837 0-20.477706-9.167869-20.477706-20.477706s9.167869-20.477706 20.477706-20.477707h120.778537c12.96546 0 21.651079-3.12797 25.288944-5.19929V437.382309c0-11.309837 9.167869-20.477706 20.477706-20.477706s20.477706 9.167869 20.477707 20.477706v123.478523c0 13.926888-9.172989 26.22887-25.167102 33.752379-11.312909 5.322156-25.901227 8.252516-41.077255 8.252516z" fill="#000" p-id="10414"></path></svg>