<?xml version="1.0" standalone="no"?><!DOCTYPE svg PUBLIC "-//W3C//DTD SVG 1.1//EN" "http://www.w3.org/Graphics/SVG/1.1/DTD/svg11.dtd"><svg t="1569313594533" class="icon" viewBox="0 0 1024 1024" version="1.1" xmlns="http://www.w3.org/2000/svg" p-id="16783" xmlns:xlink="http://www.w3.org/1999/xlink" width="200" height="200"><defs><style type="text/css"></style></defs><path d="M976.5 216.5h-464c-13.3 0-24-10.7-24-24s10.7-24 24-24h464c13.3 0 24 10.7 24 24s-10.7 24-24 24zM256.5 216.5h-208c-13.3 0-24-10.7-24-24s10.7-24 24-24h208c13.3 0 24 10.7 24 24s-10.7 24-24 24z" fill="#1037AC" p-id="16784"></path><path d="M416.5 344.5h-160c-13.3 0-24-10.7-24-24v-256c0-13.3 10.7-24 24-24h160c13.3 0 24 10.7 24 24v256c0 13.3-10.7 24-24 24z m-136-48h112v-208h-112v208zM976.5 856.5h-464c-13.3 0-24-10.7-24-24s10.7-24 24-24h464c13.3 0 24 10.7 24 24s-10.7 24-24 24zM256.5 856.5h-208c-13.3 0-24-10.7-24-24s10.7-24 24-24h208c13.3 0 24 10.7 24 24s-10.7 24-24 24z" fill="#1037AC" p-id="16785"></path><path d="M416.5 984.5h-160c-13.3 0-24-10.7-24-24v-256c0-13.3 10.7-24 24-24h160c13.3 0 24 10.7 24 24v256c0 13.3-10.7 24-24 24z m-136-48h112v-208h-112v208z" fill="#1037AC" p-id="16786"></path><path d="M976.5 536.5h-112c-13.3 0-24-10.7-24-24s10.7-24 24-24h112c13.3 0 24 10.7 24 24s-10.7 24-24 24zM608.5 536.5h-560c-13.3 0-24-10.7-24-24s10.7-24 24-24h560c13.3 0 24 10.7 24 24s-10.7 24-24 24z" fill="#7A7EF5" p-id="16787"></path><path d="M768.5 664.5h-160c-13.3 0-24-10.7-24-24v-256c0-13.3 10.7-24 24-24h160c13.3 0 24 10.7 24 24v256c0 13.3-10.7 24-24 24z m-136-48h112v-208h-112v208z" fill="#7A7EF5" p-id="16788"></path></svg>