<?xml version="1.0" standalone="no"?><!DOCTYPE svg PUBLIC "-//W3C//DTD SVG 1.1//EN" "http://www.w3.org/Graphics/SVG/1.1/DTD/svg11.dtd"><svg t="1569313448584" class="icon" viewBox="0 0 1324 1024" version="1.1" xmlns="http://www.w3.org/2000/svg" p-id="11118" xmlns:xlink="http://www.w3.org/1999/xlink" width="258.59375" height="200"><defs><style type="text/css"></style></defs><path d="M716.37 116.997H594.753c-50.367 0-91.205 40.844-91.205 91.21s40.838 91.206 91.205 91.206H716.37c50.368 0 91.212-40.838 91.212-91.205s-40.844-91.211-91.212-91.211z m0 121.615H594.753a30.495 30.495 0 0 1-30.404-30.404 30.495 30.495 0 0 1 30.404-30.404H716.37a30.495 30.495 0 0 1 30.404 30.404 30.495 30.495 0 0 1-30.404 30.404z m0 182.416H594.753c-50.367 0-91.205 40.844-91.205 91.211s40.838 91.205 91.205 91.205H716.37c50.368 0 91.212-40.838 91.212-91.205s-40.844-91.211-91.212-91.211z m0 121.615H594.753a30.495 30.495 0 0 1-30.404-30.404 30.495 30.495 0 0 1 30.404-30.404H716.37a30.495 30.495 0 0 1 30.404 30.404 30.495 30.495 0 0 1-30.404 30.404z m0 182.416H594.753c-50.367 0-91.205 40.844-91.205 91.211s40.838 91.212 91.205 91.212H716.37c50.368 0 91.212-40.844 91.212-91.212s-40.844-91.211-91.212-91.211z m0 121.615H594.753a30.495 30.495 0 0 1-30.404-30.404 30.495 30.495 0 0 1 30.404-30.403H716.37a30.495 30.495 0 0 1 30.404 30.403 30.495 30.495 0 0 1-30.404 30.404z m-334.436-60.807c-32.532 0-63.034-12.668-86.043-35.572-22.905-23.003-35.565-53.511-35.565-86.044 0-32.532 12.66-63.034 35.565-86.037 23.009-23.009 53.51-35.571 86.043-35.571h60.808v-60.808h-60.808c-100.734 0-182.416 81.675-182.416 182.41 0 100.734 81.675 182.423 182.416 182.423v60.807l91.212-91.211-91.212-91.212v60.808z m547.255-608.07h-60.8v60.808h60.8c32.533 0 63.041 12.667 86.044 35.565 23.002 23.01 35.571 53.511 35.571 86.044 0 32.532-12.667 63.034-35.571 86.043-23.003 22.905-53.511 35.565-86.044 35.565v-60.8l-91.205 91.217 91.205 91.205v-60.801c100.735 0 182.423-81.688 182.423-182.423s-81.682-182.416-182.423-182.416z" p-id="11119" fill="#707070"></path></svg>