<?xml version="1.0" standalone="no"?><!DOCTYPE svg PUBLIC "-//W3C//DTD SVG 1.1//EN" "http://www.w3.org/Graphics/SVG/1.1/DTD/svg11.dtd"><svg t="1567933441593" class="icon" viewBox="0 0 1024 1024" version="1.1" xmlns="http://www.w3.org/2000/svg" p-id="3386" xmlns:xlink="http://www.w3.org/1999/xlink" width="32" height="32"><defs><style type="text/css"></style></defs><path d="M554.957371 829.848115h-85.905532V365.957833c0-18.978237 15.384385-34.362622 34.362622-34.362623h17.181311c18.978237 0 34.362622 15.384385 34.362622 34.362623v463.890282z" fill="#00D8A0" p-id="3387"></path><path d="M889.98475 494.813572H134.01525c-37.902238 0-68.724221-30.830169-68.724221-68.724221V323.002508c0-56.845683 46.24116-103.086843 103.086843-103.086843h687.24528c56.845683 0 103.086843 46.24116 103.086843 103.086843v103.086843c-0.001023 37.894052-30.823006 68.724221-68.725245 68.724221z m0-68.724221v34.362623l0.016373-34.362623h-0.016373zM168.376848 288.639886c-18.942421 0-34.362622 15.410991-34.362622 34.362622v103.086843h755.869217l0.100284-103.086843c0-18.951631-15.419178-34.362622-34.362622-34.362622H168.376848z" fill="#444444" p-id="3388"></path><path d="M821.260529 958.712041H202.739471c-37.902238 0-68.724221-30.838356-68.724221-68.732407V494.813572c0-37.894052 30.821983-68.724221 68.724221-68.724221h618.521058c37.902238 0 68.724221 30.830169 68.724221 68.724221v395.166062c0 37.894052-30.821983 68.732407-68.724221 68.732407z m0-68.732407v34.362622l0.016373-34.362622h-0.016373zM202.739471 494.813572v395.166062h618.419751l0.100284-395.166062H202.739471zM484.09751 254.277264c-9.933233 0-19.781532-4.278443-26.577309-12.549827L358.728174 121.459283c-12.029988-14.663978-9.915837-36.317137 4.748141-48.363498 14.647605-12.038174 36.325323-9.924024 48.372707 4.739954l98.792027 120.268155c12.029988 14.663978 9.915837 36.317137-4.74814 48.363497a34.213219 34.213219 0 0 1-21.795399 7.809873z" fill="#444444" p-id="3389"></path><path d="M539.90249 254.277264c-7.68503 0-15.402805-2.558265-21.795399-7.809873-14.663978-12.047384-16.778128-33.69952-4.74814-48.363497L612.149954 77.835739c12.047384-14.663978 33.707706-16.778128 48.372708-4.739954 14.663978 12.047384 16.778128 33.69952 4.74814 48.363498l-98.792027 120.268154c-6.794753 8.271384-16.644075 12.549827-26.576285 12.549827z" fill="#444444" p-id="3390"></path></svg>